<svg xmlns="http://www.w3.org/2000/svg" version="1.1" xmlns:xlink="http://www.w3.org/1999/xlink" xmlns:svgjs="http://svgjs.dev/svgjs" width="1000" height="1000" viewBox="0 0 1000 1000"><rect width="1000" height="1000" fill="#ffffff"></rect><g transform="matrix(0.7,0,0,0.7,149.57575757575756,381.70223705004383)"><svg viewBox="0 0 396 134" data-background-color="#ffffff" preserveAspectRatio="xMidYMid meet" height="338" width="1000" xmlns="http://www.w3.org/2000/svg" xmlns:xlink="http://www.w3.org/1999/xlink"><g id="tight-bounds" transform="matrix(1,0,0,1,0.2400000000000091,-0.0012669683257797715)"><svg viewBox="0 0 395.52 134.00253393665156" height="134.00253393665156" width="395.52"><g><svg viewBox="0 0 395.52 134.00253393665156" height="134.00253393665156" width="395.52"><g><svg viewBox="0 0 395.52 134.00253393665156" height="134.00253393665156" width="395.52"><g id="textblocktransform"><svg viewBox="0 0 395.52 134.00253393665156" height="134.00253393665156" width="395.52" id="textblock"><g><svg viewBox="0 0 395.52 134.00253393665156" height="134.00253393665156" width="395.52"><g transform="matrix(1,0,0,1,0,0)"><svg width="395.52" viewBox="-0.30000001192092896 -42.5 176.77000427246094 59.900001525878906" height="134.00253393665156" data-palette-color="#e83d95"><path d="M47.9-38L47.9-38Q47.9-33.65 45.08-28.9 42.25-24.15 37.27-20.63 32.3-17.1 27-16.2L27-16.2Q23.95-10.05 22.6-7.6L22.6-7.6 21.55-5.9Q31.45-3.45 37.95 1.55L37.95 1.55Q41.25 4.1 42.4 7.8L42.4 7.8Q43 9.7 43 11.05 43 12.4 42.48 13.33 41.95 14.25 41.25 14.6 40.55 14.95 40.25 14.95 39.95 14.95 39.95 14.7 39.95 14.45 40.53 13.23 41.1 12 41.1 10.35 41.1 8.7 40.4 6.7 39.7 4.7 37.8 3.03 35.9 1.35 32.52-0.13 29.15-1.6 26.68-2.23 24.2-2.85 20.05-3.65L20.05-3.65Q15.8 2.3 11.2 4.5L11.2 4.5Q8.45 5.85 6.33 5.85 4.2 5.85 2.55 5L2.55 5Q-0.3 3.6-0.3 0.75-0.3-2.1 3.45-4.25L3.45-4.25Q7.7-6.75 14.95-6.75L14.95-6.75Q17.55-6.75 19.65-6.35L19.65-6.35Q21.9-9.85 24.9-16L24.9-16Q24.6-16 24.35-16L24.35-16Q21.2-16 18.5-17.05 15.8-18.1 14.2-19.9L14.2-19.9Q12.1-22.25 12.1-25.2L12.1-25.2Q12.1-26.75 12.88-28.55 13.65-30.35 16.32-32.2 19-34.05 23.1-35L23.1-35Q23.75-35.15 24.2-35.15 24.65-35.15 24.75-34.9 24.85-34.65 24.35-34.45 23.85-34.25 23.2-34.15L23.2-34.15Q21.05-33.9 19.2-32.7L19.2-32.7Q16-30.65 14.75-26.4L14.75-26.4Q14.45-25.4 14.45-24.48 14.45-23.55 14.8-22.25 15.15-20.95 16.3-19.58 17.45-18.2 19.43-17.65 21.4-17.1 22.88-17.1 24.35-17.1 25.6-17.25L25.6-17.25 29.85-27.95Q34.25-39.25 40.35-41.85L40.35-41.85Q41.95-42.5 43.48-42.5 45-42.5 46.38-41.53 47.75-40.55 47.85-39.15L47.85-39.15Q47.9-38.55 47.9-38ZM45.8-37.95L45.8-37.95Q45.8-39.85 44.05-39.85L44.05-39.85Q41.5-39.85 37.85-35.4L37.85-35.4Q35-31.85 32.38-26.83 29.75-21.8 27.7-17.55L27.7-17.55Q34.65-19.1 40.23-25.18 45.8-31.25 45.8-37.95ZM18.1-3.95L18.1-3.95Q15.65-4.5 13.05-4.5 10.45-4.5 7.7-3.75L7.7-3.75Q1.95-2.25 0.95 0.5L0.95 0.5Q0.75 1 0.75 1.45L0.75 1.45Q0.75 2.75 2.18 3.58 3.6 4.4 5.3 4.4L5.3 4.4Q7.65 4.4 10.4 3.1L10.4 3.1Q14.55 1.1 18.1-3.95ZM45.3-19.45Q44.6-18.85 43.75-18.85 42.9-18.85 42.4-19.45 41.9-20.05 42-20.9L42-20.9Q42.15-21.75 42.85-22.35 43.55-22.95 44.4-22.95 45.25-22.95 45.77-22.35 46.3-21.75 46.15-20.9 46-20.05 45.3-19.45ZM40.4-1.1L40.4-1.1Q41.35-1.1 42.4-2.05L42.4-2.05Q44.25-3.9 47.1-9.6L47.1-9.6Q47.45-10.35 47.8-10.05L47.8-10.05Q47.9-9.95 47.9-9.73 47.9-9.5 47.5-8.63 47.1-7.75 46.77-7.05 46.45-6.35 45.52-4.78 44.6-3.2 43.85-2.35L43.85-2.35Q41.8 0 39.97 0 38.15 0 37.35-1.1 36.55-2.2 36.55-3.55 36.55-4.9 37.2-6.5L37.2-6.5 40.4-14.65Q40.5-14.95 40.5-15.45 40.5-15.95 39.9-16.75L39.9-16.75 42.65-16.8Q43.8-16.8 44-16.38 44.2-15.95 43.7-15.05L43.7-15.05 39.7-5.7Q38.85-3.85 38.85-2.55L38.85-2.55Q38.85-1.1 40.4-1.1ZM41.2 17.4L41.2 17.4Q38.45 17.4 38.45 14.65L38.45 14.65Q38.45 10.7 43.6-1.45L43.6-1.45Q43-2.45 43-3.1L43-3.1Q43-5.2 43.95-5.9L43.95-5.9Q44.65-6.5 45.12-6.5 45.6-6.5 45.75-6.45L45.75-6.45Q51.45-19.3 56-27.8L56-27.8Q56.9-29.6 57.85-30.45 58.8-31.3 60.25-31.3L60.25-31.3Q60.45-31.3 61.25-31.15 62.05-31 62.45-31.05L62.45-31.05Q60.1-28.85 55.85-21.35 51.6-13.85 47.8-5.3L47.8-5.3Q48.95-3.9 49.4-1.55L49.4-1.55 49.55-0.9Q49.65-0.9 49.7-0.9L49.7-0.9Q51.05-0.9 52.55-2.48 54.05-4.05 55-5.73 55.95-7.4 56.55-8.68 57.15-9.95 57.3-10.05 57.45-10.15 57.57-10.13 57.7-10.1 57.8-10.03 57.9-9.95 57.9-9.78 57.9-9.6 57.8-9.4L57.8-9.4Q53.65 0.05 49.65 0.05L49.65 0.05Q49.7 0.85 49.7 2.68 49.7 4.5 48.8 8.1 47.9 11.7 45.77 14.55 43.65 17.4 41.2 17.4ZM41.15 14.65L41.15 14.65Q41.15 16.1 41.95 16.1L41.95 16.1Q42.9 16.1 44.57 13.88 46.25 11.65 47.42 7.78 48.6 3.9 48.6 0.75L48.6 0.75Q48.6 0.5 48.6 0.25L48.6 0.25Q48.35 0.25 48.15 0.25L48.15 0.25Q46.7 0.25 45.7-0.55L45.7-0.55Q41.15 10.95 41.15 14.65ZM48.2-0.7L48.2-0.7 48.5-0.7Q48.35-2.85 47.3-4.15L47.3-4.15 46.2-1.65Q46.7-0.7 48.2-0.7ZM59.24-7.7L59.24-7.7Q58.54-6 58.54-3.9L58.54-3.9Q58.54-2.5 59.17-1.68 59.79-0.85 60.94-0.85L60.94-0.85Q65.49-0.85 69.19-9.4L69.19-9.4Q69.54-10.2 70.04-10.1L70.04-10.1Q70.24-10.05 70.24-9.85 70.24-9.65 69.12-7.23 67.99-4.8 66.84-3.3L66.84-3.3Q64.29 0.2 60.54 0.2L60.54 0.2Q58.54 0.2 57.14-1.1 55.74-2.4 55.74-4.65 55.74-6.9 56.82-9.43 57.89-11.95 59.74-14.13 61.59-16.3 63.99-17.3L63.99-17.3Q65.14-17.8 66.19-17.8 67.24-17.8 68.14-17.2L68.14-17.2Q68.99-16.5 68.99-15.65L68.99-15.65Q68.99-12.65 65.39-9.9L65.39-9.9Q64.29-9.05 62.29-8.38 60.29-7.7 59.24-7.7ZM67.64-15.7L67.64-15.7Q67.64-16.7 66.84-16.7L66.84-16.7Q65.44-16.7 62.59-13.25L62.59-13.25Q60.89-11.15 59.59-8.55L59.59-8.55Q60.44-8.55 62.07-9.15 63.69-9.75 64.89-10.75L64.89-10.75Q67.64-13.1 67.64-15.7ZM84.34-13.6L84.34-13.6Q84.34-11.4 83.19-8.75 82.04-6.1 80.02-3.65 77.99-1.2 75.09-0.3L75.09-0.3Q73.99 0 72.57 0 71.14 0 69.44-0.9L69.44-0.9 64.69 10.95Q63.94 12.55 63.29 13.05 62.64 13.55 62.04 13.55 61.44 13.55 61.32 13.55 61.19 13.55 60.42 13.4 59.64 13.25 59.24 13.3L59.24 13.3Q60.34 12.25 64.82 3.33 69.29-5.6 69.89-8.7L69.89-8.7Q69.34-7.9 68.84-7.85L68.84-7.85Q68.54-7.85 68.84-8.43 69.14-9 69.84-10.65L69.84-10.65Q70.74-12.8 70.74-14.63 70.74-16.45 70.04-16.75L70.04-16.75Q73.04-17.25 73.54-17.23 74.04-17.2 74.17-16.8 74.29-16.4 74.29-15.9L74.29-15.9Q74.29-12.85 72.89-9.1L72.89-9.1 73.89-10.7Q75.69-13.6 76.52-14.45 77.34-15.3 78.29-16.2L78.29-16.2Q79.74-17.6 81.09-17.6L81.09-17.6Q81.49-17.6 81.84-17.5L81.84-17.5Q84.34-16.85 84.34-13.6ZM81.94-14.1L81.94-14.1Q81.94-14.9 81.62-15.58 81.29-16.25 80.59-16.25L80.59-16.25Q78.84-16.25 76.52-13 74.19-9.75 69.84-1.65L69.84-1.65Q70.49-1 71.64-1 72.79-1 74.89-2.75L74.89-2.75Q78.24-5.55 80.49-9.7L80.49-9.7Q81.94-12.4 81.94-14.1ZM92.84-20.05L92.84-20.05Q92.84-17.8 89.99-15.8L89.99-15.8Q90.99-15.75 92.66-15.75 94.34-15.75 96.89-16L96.89-16Q96.99-15.85 96.99-15.2 96.99-14.55 96.39-13.28 95.79-12 95.31-11.08 94.84-10.15 94.41-9.33 93.99-8.5 93.46-7.3 92.94-6.1 92.59-5.1L92.59-5.1Q91.34-1.3 92.99-1.3L92.99-1.3Q95.09-1.3 99.19-9.65L99.19-9.65Q99.54-10.3 99.76-10.15 99.99-10 99.99-9.78 99.99-9.55 99.34-8.22 98.69-6.9 97.94-5.5 97.19-4.1 95.59-2.25L95.59-2.25Q93.69 0.05 91.94 0.05L91.94 0.05Q89.99 0.05 89.24-2.3L89.24-2.3Q89.09-2.75 89.09-3.65 89.09-4.55 89.66-6.05 90.24-7.55 91.49-9.7 92.74-11.85 92.89-12.23 93.04-12.6 93.04-12.95L93.04-12.95Q93.04-14.5 89.04-14.6L89.04-14.6 88.44-13Q85.29-4.75 82.39-1.95L82.39-1.95Q81.89-1.5 81.89-2.25L81.89-2.25Q81.89-2.4 81.99-2.6L81.99-2.6Q84.79-6.3 86.84-11.35 88.89-16.4 89.69-20.95L89.69-20.95Q89.99-22.5 91.09-22.5 92.19-22.5 92.69-21.1L92.69-21.1Q92.84-20.65 92.84-20.05ZM101.34-7.7L101.34-7.7Q100.64-6 100.64-3.9L100.64-3.9Q100.64-2.5 101.26-1.68 101.89-0.85 103.04-0.85L103.04-0.85Q107.59-0.85 111.29-9.4L111.29-9.4Q111.64-10.2 112.14-10.1L112.14-10.1Q112.34-10.05 112.34-9.85 112.34-9.65 111.21-7.23 110.09-4.8 108.94-3.3L108.94-3.3Q106.39 0.2 102.64 0.2L102.64 0.2Q100.64 0.2 99.24-1.1 97.84-2.4 97.84-4.65 97.84-6.9 98.91-9.43 99.99-11.95 101.84-14.13 103.69-16.3 106.09-17.3L106.09-17.3Q107.24-17.8 108.29-17.8 109.34-17.8 110.24-17.2L110.24-17.2Q111.09-16.5 111.09-15.65L111.09-15.65Q111.09-12.65 107.49-9.9L107.49-9.9Q106.39-9.05 104.39-8.38 102.39-7.7 101.34-7.7ZM109.74-15.7L109.74-15.7Q109.74-16.7 108.94-16.7L108.94-16.7Q107.54-16.7 104.69-13.25L104.69-13.25Q102.99-11.15 101.69-8.55L101.69-8.55Q102.54-8.55 104.16-9.15 105.79-9.75 106.99-10.75L106.99-10.75Q109.74-13.1 109.74-15.7ZM110.18-4L110.18-4Q110.18-8.15 114.18-17.9L114.18-17.9 111.58-17.9Q111.33-17.9 111.26-18.18 111.18-18.45 111.31-18.73 111.43-19 111.68-19L111.68-19 114.68-19Q116.48-22.95 118.03-25.6 119.58-28.25 120.88-29.18 122.18-30.1 122.76-30.1 123.33-30.1 123.58-30L123.58-30Q124.73-29.45 124.73-27.73 124.73-26 123.58-23.55 122.43-21.1 121.33-19L121.33-19 123.73-19Q123.98-19 124.06-18.73 124.13-18.45 124.01-18.18 123.88-17.9 123.63-17.9L123.63-17.9 120.73-17.9Q117.98-13.25 114.08-9.65L114.08-9.65 112.93-4.55Q112.78-3.9 112.78-3.28 112.78-2.65 113.13-2 113.48-1.35 114.23-1.35L114.23-1.35Q115.08-1.35 116.13-1.95L116.13-1.95Q118.53-3.75 121.43-9.5L121.43-9.5Q121.63-9.95 121.91-10.05 122.18-10.15 122.23-9.93 122.28-9.7 122.08-9.2L122.08-9.2Q120.43-5.75 119.48-4.3L119.48-4.3Q116.78 0.05 113.73 0.05L113.73 0.05Q112.18 0.05 111.18-1.1 110.18-2.25 110.18-4ZM117.73-19L120.23-19Q123.53-24.9 123.53-27.2L123.53-27.2Q123.53-28.2 123.18-28.2L123.18-28.2Q122.63-28.2 121.51-26.6 120.38-25 117.73-19L117.73-19ZM119.58-17.9L119.58-17.9 117.23-17.9Q116.63-16.5 114.53-11.25L114.53-11.25Q117.23-14.05 119.58-17.9ZM123.63-7.7L123.63-7.7Q122.93-6 122.93-3.9L122.93-3.9Q122.93-2.5 123.56-1.68 124.18-0.85 125.33-0.85L125.33-0.85Q129.88-0.85 133.58-9.4L133.58-9.4Q133.93-10.2 134.43-10.1L134.43-10.1Q134.63-10.05 134.63-9.85 134.63-9.65 133.51-7.23 132.38-4.8 131.23-3.3L131.23-3.3Q128.68 0.2 124.93 0.2L124.93 0.2Q122.93 0.2 121.53-1.1 120.13-2.4 120.13-4.65 120.13-6.9 121.21-9.43 122.28-11.95 124.13-14.13 125.98-16.3 128.38-17.3L128.38-17.3Q129.53-17.8 130.58-17.8 131.63-17.8 132.53-17.2L132.53-17.2Q133.38-16.5 133.38-15.65L133.38-15.65Q133.38-12.65 129.78-9.9L129.78-9.9Q128.68-9.05 126.68-8.38 124.68-7.7 123.63-7.7ZM132.03-15.7L132.03-15.7Q132.03-16.7 131.23-16.7L131.23-16.7Q129.83-16.7 126.98-13.25L126.98-13.25Q125.28-11.15 123.98-8.55L123.98-8.55Q124.83-8.55 126.46-9.15 128.08-9.75 129.28-10.75L129.28-10.75Q132.03-13.1 132.03-15.7ZM148.83-16.4L148.83-16.4Q142.68-5.6 142.68-2.3L142.68-2.3Q142.68-1 143.63-1L143.63-1Q146.18-1 150.48-9.65L150.48-9.65Q150.78-10.35 151.08-10.2 151.38-10.05 151.38-9.8 151.38-9.55 151.18-9.2L151.18-9.2Q148.53-3.85 146.7-1.83 144.88 0.2 143.05 0.2 141.23 0.2 140.28-1.2L140.28-1.2Q139.78-1.85 139.78-2.98 139.78-4.1 140.28-5.7 140.78-7.3 143.03-10.9L143.03-10.9Q143.58-11.8 143.58-12.33 143.58-12.85 142.73-12.85 141.88-12.85 139.48-10.6L139.48-10.6Q135.88-7.3 132.53-0.7L132.53-0.7Q132.23-0.2 131.85-0.08 131.48 0.05 130.38 0.1 129.28 0.15 128.93 0.35L128.93 0.35Q129.73-1.25 132.08-6.2L132.08-6.2Q136.28-14.95 137.58-16.2L137.58-16.2Q138.18-16.8 139.23-16.8L139.23-16.8Q139.43-16.8 140.25-16.65 141.08-16.5 141.48-16.6L141.48-16.6Q139.63-15.6 135.43-7.2L135.43-7.2Q137.78-10.1 139.7-11.83 141.63-13.55 144.33-15.03 147.03-16.5 148.28-16.5L148.28-16.5Q148.58-16.5 148.83-16.4ZM154.73-0.95L154.73-0.95Q155.38-0.85 155.63-0.85L155.63-0.85Q157.63-0.85 159.58-3.2L159.58-3.2Q160.63-4.5 163.33-9.75L163.33-9.75Q163.43-10 163.68-10L163.68-10Q164.13-10.05 164.13-9.65L164.13-9.65Q164.13-9.55 163.9-9.08 163.68-8.6 163.48-8.13 163.28-7.65 162.83-6.75 162.38-5.85 162.05-5.3 161.73-4.75 161.23-3.95 160.73-3.15 160.23-2.7L160.23-2.7 159.18-1.6Q158.33-0.75 157.18-0.4L157.18-0.4Q155.33 0.2 153.58-0.3L153.58-0.3Q152.43 0.2 151.53 0.2L151.53 0.2Q147.98 0.2 147.23-2.6L147.23-2.6Q147.08-3.25 147.08-4.17 147.08-5.1 147.7-5.95 148.33-6.8 149.03-6.85L149.03-6.85Q151.58-11.7 153.38-15.6L153.38-15.6Q155.38-19.85 158.03-19.85L158.03-19.85Q158.73-19.85 159.4-19.53 160.08-19.2 159.9-18.8 159.73-18.4 159.18-18.65 158.63-18.9 158.23-18.9 157.83-18.9 157.53-18.75L157.53-18.75Q155.83-17.95 155.83-15.3L155.83-15.3Q155.83-13.9 156.23-13 156.63-12.1 157.13-11.05L157.13-11.05Q158.28-8.45 158.28-6.8L158.28-6.8Q158.28-5.15 157.23-3.55 156.18-1.95 154.73-0.95ZM153.03-1.3L153.03-1.3Q155.23-3 155.23-6.8L155.23-6.8Q155.23-8.35 154.88-11.05 154.53-13.75 154.53-14.7 154.53-15.65 154.58-16L154.58-16Q150.78-8.4 149.88-6.75L149.88-6.75Q150.93-6.75 150.93-5.25L150.93-5.25Q150.93-2.3 153.03-1.3ZM149.28-2.65L149.28-2.65Q149.28-2.35 149.33-2L149.33-2Q149.73-0.65 151.18-0.65L151.18-0.65Q151.78-0.65 152.18-0.85L152.18-0.85Q150.33-2 150.18-4.6L150.18-4.6Q149.28-3.7 149.28-2.65ZM165.47-7.7L165.47-7.7Q164.77-6 164.77-3.9L164.77-3.9Q164.77-2.5 165.4-1.68 166.02-0.85 167.17-0.85L167.17-0.85Q171.72-0.85 175.42-9.4L175.42-9.4Q175.77-10.2 176.27-10.1L176.27-10.1Q176.47-10.05 176.47-9.85 176.47-9.65 175.35-7.23 174.22-4.8 173.07-3.3L173.07-3.3Q170.52 0.2 166.77 0.2L166.77 0.2Q164.77 0.2 163.37-1.1 161.97-2.4 161.97-4.65 161.97-6.9 163.05-9.43 164.12-11.95 165.97-14.13 167.82-16.3 170.22-17.3L170.22-17.3Q171.37-17.8 172.42-17.8 173.47-17.8 174.37-17.2L174.37-17.2Q175.22-16.5 175.22-15.65L175.22-15.65Q175.22-12.65 171.62-9.9L171.62-9.9Q170.52-9.05 168.52-8.38 166.52-7.7 165.47-7.7ZM173.87-15.7L173.87-15.7Q173.87-16.7 173.07-16.7L173.07-16.7Q171.67-16.7 168.82-13.25L168.82-13.25Q167.12-11.15 165.82-8.55L165.82-8.55Q166.67-8.55 168.3-9.15 169.92-9.75 171.12-10.75L171.12-10.75Q173.87-13.1 173.87-15.7Z" opacity="1" transform="matrix(1,0,0,1,0,0)" fill="#000000" class="wordmark-text-0" data-fill-palette-color="primary" id="text-0"></path></svg></g></svg></g></svg></g></svg></g></svg></g><defs></defs></svg><rect width="395.52" height="134.00253393665156" fill="none" stroke="none" visibility="hidden"></rect></g></svg></g></svg>